<?xml version="1.0" encoding="utf-8"?>
<!-- Generator: Adobe Illustrator 19.1.0, SVG Export Plug-In . SVG Version: 6.00 Build 0)  -->
<svg version="1.1" id="Nebraska_N" xmlns="http://www.w3.org/2000/svg" xmlns:xlink="http://www.w3.org/1999/xlink" x="0px" y="0px"
	 viewBox="0 0 174 152" enable-background="new 0 0 174 152" xml:space="preserve">
<g>
	<path fill="#FFFFFF" d="M170,151.2c-1.8,0-3.2-1.4-3.2-3.2c0-1.8,1.4-3.2,3.2-3.2c1.7,0,3.2,1.5,3.2,3.2
		C173.2,149.8,171.8,151.2,170,151.2z"/>
	<path fill="#231F20" d="M170.1,144c-2.3,0-4.1,1.8-4.1,4c0,2.2,1.8,4,4,4c2.2,0,4-1.8,4-4C174,145.8,172.2,144,170.1,144z
		 M170,151.2c-1.8,0-3.2-1.4-3.2-3.2c0-1.8,1.4-3.2,3.2-3.2c1.7,0,3.2,1.5,3.2,3.2C173.2,149.8,171.8,151.2,170,151.2z"/>
	<g>
		<path fill="#231F20" d="M168.4,145.6h1.4c0.6,0,0.8,0,1.1,0.2c0.4,0.2,0.6,0.6,0.6,1.1c0,0.4-0.1,0.7-0.3,1
			c-0.1,0.2-0.3,0.2-0.6,0.4l-0.1,0l1.1,2.1h-0.8l-1-2h-0.6v2h-0.8V145.6z M169.6,147.7c0,0,0.3,0,0.4,0c0.4-0.1,0.6-0.3,0.6-0.8
			c0-0.3-0.1-0.5-0.4-0.6c-0.1,0-0.1,0-0.6,0h-0.4v1.4H169.6z"/>
	</g>
</g>
<g>
	<path fill="#231F20" d="M158,0h-54h-5v5v35v5h5h5v24.8L66.2,2.3L64.8,0H62H16h-5v5v35v5h5h5v62h-5h-5v5v35v5h5h54h5v-5v-35v-5h-5
		h-5V82.2l42.8,67.5l1.5,2.3h2.7h46h5v-5v-35v-5h-5h-5V45h5h5v-5V5V0H158z M161,5v35v3h-3h-7v66h7h3v3v35v3h-3h-46h-1.6l-0.9-1.4
		L63,75.3V109h7h3v3v35v3h-3H16h-3v-3v-35v-3h3h7V43h-7h-3v-3V5V2h3h46h1.6l0.9,1.4L111,76.7V43h-7h-3v-3V5V2h3h54h3V5z"/>
	<path fill="#FFFFFF" d="M158,2h-54h-3v3v35v3h3h7v33.7L64.5,3.4L63.7,2H62H16h-3v3v35v3h3h7v66h-7h-3v3v35v3h3h54h3v-3v-35v-3h-3
		h-7V75.3l46.5,73.3l0.9,1.4h1.6h46h3v-3v-35v-3h-3h-7V43h7h3v-3V5V2H158z M70,112L70,112v35H16v-35v0c0,0,7.8,0,10,0
		c0-3.3,0-68.7,0-72c-2.2,0-10,0-10,0V5h46l52,82c0,0,0-44.4,0-47c-2.2,0-10,0-10,0V5h54v35c0,0-7.8,0-10,0c0,3.3,0,68.7,0,72
		c2.2,0,10,0,10,0v0v35h-46L60,65c0,0,0,44.4,0,47C62.2,112,70,112,70,112z"/>
</g>
<path fill="#231F20" d="M114,87L114,87L62,5H16v35c0,0,7.8,0,10,0c0,3.3,0,68.7,0,72v0c-2.2,0-10,0-10,0v35h54v-35c0,0-7.8,0-10,0v0
	c0-2.6,0-47,0-47l52,82h46v-35c0,0-7.8,0-10,0v0c0-3.3,0-68.7,0-72c2.2,0,10,0,10,0V5h-54v35c0,0,7.8,0,10,0C114,42.6,114,87,114,87
	z"/>
</svg>
