<?xml version="1.0" encoding="UTF-8"?><svg xmlns="http://www.w3.org/2000/svg" viewBox="0 0 475 475"><defs><style>.cls-1{fill:#fff;}.cls-2{fill:#ed0c0c;opacity:0;}</style></defs><g id="Transparance"><rect class="cls-2" width="475" height="475"/></g><g id="White_BG"><rect class="cls-1" y="130.1" width="475" height="214.8"/></g><g id="Layer_1"><g><path d="M403,293.9l-1.2-2.3s0-.1-.1-.1h0l-42.2-78.8,33.3-42.7c9.1-11.2,17.6-13.7,28.6-13.7v-12.7h-72.2v12.8c11.1,0,16.9,11.1,11.8,17.6l-47.7,60.3h0l50.5,95h71.4v-17.7c-11,0-23.8-2.8-32.2-17.7Z"/><path d="M268.1,291.1h2.3v-1.7c.4-38.8,1.6-93.1,2.3-123.6h0c.1-10.8-.1-10.8-6-12.5-4.5-1.3-4.6-2.1-4.6-6.9v-2.8h-20.7v12.8c10.3,0,16.1,7.2,16.1,18.4h0v53.9h-1.1l-1.2-3.3-40.4-81.7h-19.3l68.9,138.6,3.7,8.8Z"/><path d="M312.8,292.8h0v-118.8c.2-10.8,6.1-17.7,16.1-17.7v-12.8h-29.3v2.8c0,4.7-.2,5.6-4.6,6.9-5.9,1.8-6.1,1.7-6,12.4,.7,30.3,2,84.2,2.3,122.9h0c.1,8.6,.5,7.6,4.2,9,2.8,1.1,2.7,1.4,2.6,5.1-.1,3.3,0,3.4,4.5,4.8,3.8,1.1,3.8,2.7,3.8,6.4v4.1h-55.5l-71.1-143.2-4-9.4h-2.2v1.5h0c.7,30.5,1.9,83.4,2.3,121.7h0c.1,8.6,.5,7.6,4.2,9,2.8,1.1,2.7,1.4,2.6,5.1-.1,3.3,0,3.4,4.5,4.8,3.8,1.1,3.8,2.7,3.8,6.4v4.1h-51.3v-4.1c0-3.7,.1-5.3,3.8-6.4,4.5-1.4,4.7-1.5,4.5-4.8-.1-3.7-.3-4,2.6-5.1,3.6-1.4,4.1-.5,4.2-9h0c.4-38.8,1.6-92.6,2.3-122.9,.1-10.8-.1-10.7-6-12.5-4.5-1.3-4.6-2.1-4.6-6.9v-2.8h-29.2v12.8c10.3,0,16.1,7.2,16.1,18.4h0v109.2c-.2,17.6-8.8,28.1-26.7,28.1-16.1,0-25.9-13.2-25.9-30.3h0v-106.9h0c0-11.2,5.8-18.4,16.1-18.4v-12.8H13.3v12.8c10.3,0,16.1,7.2,16.1,18.4h0v101.8h0c0,38.4,37.4,55.1,77.7,55.1,12.3,0,18.1-2.4,23.7-2.4h76.4v-18.1c-10.3,0-16.1-7.2-16.1-18.4h0v-55.2h1.1l1.3,3.3,44,88.4h91.5v-18.1c-10.4,0-16.2-7.1-16.2-18.3Z"/><path d="M451.3,309.9c-5.7,0-10.4,4.4-10.4,10.3s4.8,10.3,10.4,10.3,10.4-4.4,10.4-10.3-4.8-10.3-10.4-10.3Zm0,18.8c-.7,0-1.4-.1-2-.2-3-.7-5.3-3-6.1-6-.2-.7-.3-1.5-.3-2.3,0-4.9,3.7-8.5,8.4-8.5s8.3,3.7,8.3,8.5-3.6,8.5-8.3,8.5Z"/><path d="M456,317.6c0-2.3-1.4-3.4-4.2-3.4h-4.5v11.8h1.8v-5.1h2.1l3.1,5.1h2l-3.4-5.2c1.8-.1,3.1-1,3.1-3.2Zm-6.9,1.9v-3.7h2.4c1.3,0,2.6,.3,2.6,1.8,0,1.8-1.4,1.9-2.9,1.9h-2.1Z"/></g></g></svg>