<?xml version="1.0" encoding="UTF-8"?>
<svg version="1.1" xmlns="http://www.w3.org/2000/svg" xmlns:xlink="http://www.w3.org/1999/xlink"
	 viewBox="0 0 302.9 302.9" style="enable-background:new 0 0 302.9 302.9;" xml:space="preserve">
<style type="text/css">
	.st0{fill:#FFFFFF;}
	.st1{fill:#231F20;}
</style>
<g>
	<rect class="st0" width="302.9" height="302.9"/>
</g>
<g>
	<g>
		<path class="st1" d="M281.4,12.3h-108v82.4h18.3v45.4L113.4,16.5l-2.6-4.2H12.3v82.4h18.3v113.5H12.3v82.4h117.2v-82.4h-18.3
			v-45.4l78.4,123.6l2.8,4.2h98.3v-82.4h-18.3V94.7h18.3V12.3H281.4L281.4,12.3z M286.9,21.4V91h-18.3v120.8h18.3v75.1h-92.6
			l-1.6-2.6l-85.1-134.2v61.7h18.3v75.1H15.9v-75.1h18.3V91H15.9V15.9h92.7l1.7,2.6l85.1,134.2V91h-18.3V15.9h109.9V21.4L286.9,21.4
			z"/>
		<path class="st0" d="M281.4,15.9H177.1V91h18.3v61.7L110.2,18.5l-1.5-2.6H15.9V91h18.3v120.8H15.9v75.1h109.9v-75.1h-18.3v-61.7
			l85.1,134.2l1.6,2.6h92.6v-75.1h-18.3V91h18.3V15.9H281.4z M120.3,217.4L120.3,217.4v64.1H21.4v-64.1h18.3V85.5H21.4V21.4h84.2
			l95.2,150.1V85.5h-18.3V21.4h98.9v64.1h-18.3v131.8h18.3v64.1h-84.2L102,131.3v86.1C102,217.4,120.3,217.4,120.3,217.4z"/>
	</g>
	<path class="st1" d="M200.9,171.6L200.9,171.6L105.7,21.4H21.4v64.1h18.3v131.8H21.4v64.1h98.9v-64.1H102v-86.1l95.2,150.1h84.2
		v-64.1h-18.3V85.5h18.3V21.4h-98.9v64.1h18.3L200.9,171.6L200.9,171.6z"/>
</g>
</svg>
