<?xml version="1.0" encoding="UTF-8"?><svg xmlns="http://www.w3.org/2000/svg" viewBox="0 0 315 315"><defs><style>.cls-1{fill:#fff;}.cls-2{fill:#231f20;}</style></defs><g id="WhiteBG"><rect class="cls-1" width="315" height="315"/></g><g id="Nebraska_N"><g><path class="cls-1" d="M304.9,295.19c-3.3,0-5.86-2.56-5.86-5.86s2.56-5.86,5.86-5.86c3.11,0,5.86,2.75,5.86,5.86,0,3.3-2.56,5.86-5.86,5.86Z"/><path class="cls-2" d="M305.09,282.01c-4.21,0-7.51,3.3-7.51,7.32s3.3,7.32,7.32,7.32,7.32-3.3,7.32-7.32-3.3-7.32-7.14-7.32Zm-.18,13.18c-3.3,0-5.86-2.56-5.86-5.86s2.56-5.86,5.86-5.86c3.11,0,5.86,2.75,5.86,5.86,0,3.3-2.56,5.86-5.86,5.86Z"/><path class="cls-2" d="M301.98,284.94h2.56c1.1,0,1.46,0,2.01,.37,.73,.37,1.1,1.1,1.1,2.01,0,.73-.18,1.28-.55,1.83-.18,.37-.55,.37-1.1,.73h-.18l2.01,3.85h-1.46l-1.83-3.66h-1.1v3.66h-1.46v-8.79h0Zm2.2,3.85h.73c.73-.18,1.1-.55,1.1-1.46,0-.55-.18-.92-.73-1.1h-1.83v2.56h.73Z"/></g><g><path class="cls-2" d="M282.93,18.34h-108.03V100.74h18.31v45.41L114.84,22.55l-2.56-4.21H13.77V100.74h18.31v113.52H13.77v82.4h117.19v-82.4h-18.31v-45.41l78.37,123.59,2.75,4.21h98.33v-82.4h-18.31V100.74h18.31V18.34h-9.16Zm5.49,9.16V97.08h-18.31v120.85h18.31v75.07h-92.65l-1.65-2.56L108.98,156.22v61.71h18.31v75.07H17.43v-75.07h18.31V97.08H17.43V22H110.08l1.65,2.56,85.14,134.21v-61.71h-18.31V22h109.86v5.49Z"/><path class="cls-1" d="M282.93,22h-104.37V97.08h18.31v61.71L111.73,24.57l-1.46-2.56H17.43V97.08h18.31v120.85H17.43v75.07H127.29v-75.07h-18.31v-61.71l85.14,134.21,1.65,2.56h92.65v-75.07h-18.31V97.08h18.31V22h-5.49ZM121.8,223.42h0v64.09H22.93v-64.09h18.31V91.58H22.93V27.5H107.15l95.21,150.14V91.58h-18.31V27.5h98.88V91.58h-18.31V223.42h18.31v64.09h-84.23L103.49,137.36v86.06h18.31Z"/></g><path class="cls-2" d="M202.37,177.64h0L107.15,27.5H22.93V91.58h18.31V223.42H22.93v64.09H121.8v-64.09h-18.31v-86.06l95.21,150.14h84.23v-64.09h-18.31V91.58h18.31V27.5h-98.88V91.58h18.31v86.06Z"/></g></svg>